<?xml version="1.0" encoding="UTF-8" standalone="no"?>
<!-- Created with Inkscape (http://www.inkscape.org/) -->

<svg
   xmlns:dc="http://purl.org/dc/elements/1.1/"
   xmlns:cc="http://creativecommons.org/ns#"
   xmlns:rdf="http://www.w3.org/1999/02/22-rdf-syntax-ns#"
   xmlns:svg="http://www.w3.org/2000/svg"
   xmlns="http://www.w3.org/2000/svg"
   xmlns:sodipodi="http://sodipodi.sourceforge.net/DTD/sodipodi-0.dtd"
   xmlns:inkscape="http://www.inkscape.org/namespaces/inkscape"
   width="39.6875mm"
   height="34.393982mm"
   viewBox="0 0 39.6875 34.393982"
   version="1.1"
   id="svg5101"
   inkscape:version="0.92.3 (unknown)"
   sodipodi:docname="program-open-jordan.svg">
  <defs
     id="defs5095" />
  <sodipodi:namedview
     id="base"
     pagecolor="#ffffff"
     bordercolor="#666666"
     borderopacity="1.0"
     inkscape:pageopacity="0.0"
     inkscape:pageshadow="2"
     inkscape:zoom="1.4519531"
     inkscape:cx="10.175081"
     inkscape:cy="-5.189145"
     inkscape:document-units="mm"
     inkscape:current-layer="layer1"
     showgrid="false"
     fit-margin-top="0"
     fit-margin-left="0"
     fit-margin-right="0"
     fit-margin-bottom="0"
     inkscape:window-width="2560"
     inkscape:window-height="1392"
     inkscape:window-x="0"
     inkscape:window-y="48"
     inkscape:window-maximized="1" />
  <metadata
     id="metadata5098">
    <rdf:RDF>
      <cc:Work
         rdf:about="">
        <dc:format>image/svg+xml</dc:format>
        <dc:type
           rdf:resource="http://purl.org/dc/dcmitype/StillImage" />
        <dc:title></dc:title>
      </cc:Work>
    </rdf:RDF>
  </metadata>
  <g
     inkscape:label="Layer 1"
     inkscape:groupmode="layer"
     id="layer1"
     transform="translate(-33.730637,-113.06639)">
    <g
       id="g6955"
       transform="matrix(1.2431137,0,0,1.2431137,-65.867046,-463.11415)"
       style="stroke-width:0.80443168">
      <path
         transform="matrix(0.09894598,0.42321549,-0.42321549,0.09894598,250.71143,474.39167)"
         inkscape:transform-center-y="0.38981119"
         inkscape:transform-center-x="0.43783402"
         d="m -47.586074,373.06176 -35.139928,10.68246 -26.821248,-25.09085 8.31869,-35.7733 35.139926,-10.68245 26.821245,25.09084 z"
         inkscape:randomized="0"
         inkscape:rounded="0"
         inkscape:flatsided="true"
         sodipodi:arg2="1.2756759"
         sodipodi:arg1="0.75207717"
         sodipodi:r2="18.35096"
         sodipodi:r1="36.727776"
         sodipodi:cy="347.97092"
         sodipodi:cx="-74.407318"
         sodipodi:sides="6"
         id="path357"
         style="opacity:1;fill:#5cb19c;fill-opacity:1;stroke:none;stroke-width:0.60332376;stroke-linecap:butt;stroke-linejoin:round;stroke-miterlimit:4;stroke-dasharray:none;stroke-dashoffset:0;stroke-opacity:1"
         sodipodi:type="star" />
      <path
         inkscape:connector-curvature="0"
         id="path357-3"
         d="m 104.127,463.56655 -16.101005,27.37168 0.0916,0.15854 15.962915,-0.0189 7.9649,-13.83397 z"
         style="opacity:1;fill:#448f7c;fill-opacity:1;stroke:none;stroke-width:0.26222152;stroke-linecap:butt;stroke-linejoin:round;stroke-miterlimit:4;stroke-dasharray:none;stroke-dashoffset:0;stroke-opacity:1" />
      <path
         sodipodi:nodetypes="cccccccsccccccccccccccccccsscsscsscsccccscccccccccccscccccccccccscscscccsscsscscccccsccccsscccccccccssscccccccsccccccc"
         inkscape:connector-curvature="0"
         id="path14693"
         d="m 91.553785,482.68672 c -2.47277,-0.42547 -2.98743,-0.53873 -2.9198,-0.64252 0.0215,-0.0332 0.0419,-0.20777 0.0452,-0.38796 0.003,-0.18019 0.0333,-0.37726 0.0668,-0.43795 0.0336,-0.0607 0.0783,-0.21465 0.0995,-0.34216 0.12699,-0.76312 0.21663,-1.13789 0.30195,-1.26244 0.0531,-0.0776 0.0936,-0.26233 0.0899,-0.41059 -0.0143,-0.58216 0.0705,-1.25101 0.18547,-1.4619 0.17495,-0.32093 0.40545,-1.03575 0.35765,-1.10913 -0.0225,-0.0346 8.5e-4,-0.0543 0.0528,-0.0441 0.0525,0.0106 0.10518,-0.0564 0.11968,-0.15227 0.0143,-0.0941 0.0556,-0.20033 0.0919,-0.2361 0.0882,-0.0869 0.0842,-0.36103 -0.005,-0.41399 -0.10515,-0.0616 -0.0836,-0.45165 0.0362,-0.65008 0.0568,-0.0941 0.10425,-0.31535 0.10566,-0.49168 8.5e-4,-0.17633 0.0413,-0.40727 0.0886,-0.51323 0.0473,-0.10595 0.0939,-0.53138 0.1035,-0.94538 0.0258,-1.11814 0.0914,-2.3755 0.13241,-2.53887 0.0198,-0.0791 0.1645,-0.22822 0.32148,-0.33142 0.23034,-0.15141 0.33151,-0.17852 0.52433,-0.14045 0.35455,0.07 0.6758,0.30161 0.75025,0.54095 0.049,0.1576 0.1143,0.21691 0.25587,0.23247 0.10454,0.0114 0.32168,0.12775 0.48254,0.25836 0.23125,0.18776 0.41055,0.25994 0.85664,0.3448 l 0.5642,0.10733 0.43217,-0.28284 c 0.2377,-0.15557 0.73246,-0.47014 1.09948,-0.69904 0.36701,-0.2289 0.66731,-0.44325 0.66731,-0.47632 0,-0.0332 0.0243,-0.0526 0.054,-0.0435 0.0298,0.009 0.28135,-0.1252 0.5591,-0.29842 0.86177,-0.53751 1.54136,-0.96596 2.29353,-1.44601 0.699285,-0.44631 0.870025,-0.52055 0.942235,-0.40974 0.0722,0.11094 0.8402,2.91732 0.8402,3.07052 0,0.10315 -0.042,0.16198 -0.11593,0.16198 -0.0761,0 -0.10087,0.0372 -0.0721,0.10824 0.024,0.0595 0.0438,0.15297 0.0438,0.20766 0,0.0793 0.0707,0.0905 0.34993,0.0553 l 0.34994,-0.044 0.0736,0.27484 0.0736,0.27487 -0.45185,0.4248 c -0.49384,0.46426 -0.34045,0.40403 -2.811845,1.10412 -0.39678,0.11239 -0.99735,0.29708 -1.33462,0.4104 -0.33725,0.11333 -0.84044,0.26261 -1.11818,0.33173 -0.27775,0.0691 -0.62672,0.17475 -0.77552,0.23473 -0.24076,0.0971 -0.261,0.12355 -0.18396,0.24059 0.0476,0.0723 0.11337,0.11583 0.14608,0.0966 0.0327,-0.0192 0.0506,-0.003 0.0397,0.0334 -0.0184,0.0633 0.61245,0.81683 1.15212,1.37597 0.12877,0.1334 0.23427,0.26744 0.23446,0.29785 2.3e-4,0.0304 0.15455,0.19949 0.34303,0.37573 0.18846,0.17625 0.33405,0.33613 0.32356,0.35529 -0.0106,0.0192 0.0951,0.17678 0.23445,0.35024 0.25947,0.32275 0.32389,0.53711 0.16339,0.54369 -0.0496,0.003 -0.26718,0.11752 -0.48353,0.25662 -0.35567,0.22868 -0.41811,0.30842 -0.65166,0.83219 l -0.25832,0.57928 -0.86329,0.18635 c -0.47482,0.1025 -0.93454,0.18826 -1.02159,0.19057 -0.23902,0.006 -0.48434,0.25856 -0.78557,0.80754 -0.25591,0.4664 -0.55429,0.76808 -1.50893,1.52562 -0.13056,0.10359 -0.19574,0.10564 -0.68535,0.0214 z m 1.14556,-0.55404 c 0.47457,-0.39913 0.6992,-0.64884 0.908,-1.00935 0.48682,-0.84054 0.46365,-0.82167 1.17228,-0.95453 1.57141,-0.29462 1.57264,-0.29504 1.67558,-0.57275 0.28939,-0.78073 0.36943,-0.89247 0.84216,-1.17567 0.2533,-0.15174 0.46055,-0.29401 0.46055,-0.31615 0,-0.0221 -0.15421,-0.21977 -0.34268,-0.43918 -0.18847,-0.21943 -0.42816,-0.50108 -0.53268,-0.62591 -0.10451,-0.12481 -0.59958,-0.70311 -1.10016,-1.28509 -0.50058,-0.582 -0.91013,-1.07655 -0.91013,-1.09901 0,-0.0382 2.54501,-0.80718 4.89892,-1.48017 1.010075,-0.28878 1.051795,-0.30827 1.478905,-0.69078 0.29533,-0.26449 0.43332,-0.43851 0.42064,-0.53048 -0.04,-0.29023 -0.063,-0.30205 -0.39998,-0.20585 l -0.31957,0.0912 -0.0816,-0.25857 c -0.11015,-0.34874 -0.10433,-0.39217 0.058,-0.43243 0.15252,-0.038 0.18524,0.11006 -0.53518,-2.41925 l -0.19737,-0.69295 -1.092275,0.69427 c -0.60074,0.38184 -1.40067,0.88296 -1.77761,1.11362 -0.37694,0.23064 -1.21441,0.76286 -1.86106,1.1827 -1.05472,0.68478 -1.19951,0.75895 -1.40676,0.72066 -0.12706,-0.0235 -0.40957,-0.0719 -0.62779,-0.10753 -0.26863,-0.044 -0.44626,-0.11766 -0.54999,-0.2284 -0.1911,-0.20401 -0.56409,-0.3914 -0.68988,-0.34658 -0.0934,0.0333 -0.27509,-0.24725 -0.27509,-0.42474 0,-0.049 -0.0452,-0.089 -0.1005,-0.089 -0.0553,0 -0.1174,-0.0418 -0.13808,-0.0929 -0.0208,-0.0511 -0.14112,-0.11255 -0.26766,-0.13655 -0.20872,-0.0397 -0.29281,-0.0149 -0.71179,0.21012 -0.0677,0.0364 -0.15389,1.23694 -0.18569,2.5855 -0.01,0.41402 -0.055,0.83943 -0.10057,0.94538 -0.0455,0.10595 -0.0835,0.35231 -0.0844,0.54744 -6.2e-4,0.20313 -0.062,0.48106 -0.14286,0.6501 -0.13258,0.27711 -0.13394,0.30592 -0.0222,0.46769 0.0991,0.14342 0.10488,0.20962 0.0346,0.39387 -0.0464,0.12183 -0.0844,0.28482 -0.0844,0.36221 0,0.0774 -0.0487,0.17907 -0.10821,0.22593 -0.0595,0.047 -0.10821,0.12803 -0.10821,0.18038 0,0.0523 -0.0281,0.14867 -0.0625,0.21402 -0.0343,0.0653 -0.10297,0.22661 -0.15248,0.35833 -0.33766,0.89841 -0.35777,0.97485 -0.28871,1.09724 0.0469,0.083 0.0454,0.18893 -0.003,0.31299 -0.0413,0.10311 -0.0547,0.27574 -0.0296,0.38364 0.0291,0.12601 0.005,0.25416 -0.0665,0.35827 -0.10134,0.14668 -0.19473,0.53764 -0.31143,1.30361 -0.023,0.15055 -0.0652,0.30452 -0.0941,0.34215 -0.0288,0.0377 -0.0573,0.17621 -0.0634,0.30794 -0.005,0.13174 -0.0186,0.29753 -0.0281,0.36843 -0.0151,0.11452 0.11997,0.15372 1.20937,0.35086 0.67452,0.12205 1.37248,0.2532 1.55105,0.29143 0.17854,0.0383 0.36746,0.0727 0.4198,0.0768 0.0524,0.003 0.37896,-0.23133 0.72576,-0.52301 z"
         style="fill:#ffffff;stroke:#ffffff;stroke-width:0.40221584;stroke-opacity:1" />
      <path
         inkscape:connector-curvature="0"
         id="path14745"
         d="m 100.04042,474.90068 c -0.0216,0.007 -0.0381,0.0125 -0.05991,0.0191 -0.34598,0.1051 -0.58376,0.18228 -0.87905,0.27423 1.07902,0.20674 2.07362,0.76907 2.80092,1.62632 0.20512,0.24176 0.583,0.78661 0.58044,0.8378 -6.8e-4,0.0163 -0.0599,0.0706 -0.13179,0.12069 -0.37244,0.25955 -0.65394,0.69349 -0.76724,1.18392 -0.06,0.25983 -0.0385,0.79388 0.0412,1.02817 0.18869,0.55382 0.58453,0.98575 1.13735,1.24116 0.22567,0.10424 0.22124,0.0714 0.0679,0.51297 -0.2165,0.62323 -0.6108,1.26063 -1.08586,1.75502 -0.47927,0.49878 -1.19195,0.95441 -1.85266,1.1839 -0.44246,0.15371 -0.40879,0.15857 -0.51608,-0.0737 -0.12207,-0.26421 -0.28204,-0.48464 -0.50187,-0.69003 -0.22345,-0.20879 -0.40946,-0.32051 -0.70377,-0.42334 -0.19278,-0.0674 -0.276,-0.0814 -0.54005,-0.0905 -0.45483,-0.0157 -0.78738,0.0666 -1.14885,0.284 -0.18544,0.11155 -0.43915,0.34618 -0.55603,0.51385 -0.0501,0.072 -0.10446,0.13155 -0.12068,0.13223 -0.0512,0.002 -0.59604,-0.37531 -0.83779,-0.58042 -0.24738,-0.20987 -0.46924,-0.44269 -0.66608,-0.69269 -0.1213,0.1453 -0.24733,0.28005 -0.37629,0.40203 0.3886,0.48414 1.00551,1.03239 1.47013,1.29576 0.16249,0.0921 0.19115,0.11832 0.17749,0.16195 -0.009,0.0287 -0.0215,0.19255 -0.0293,0.36433 -0.0196,0.46113 0.0755,0.82103 0.31728,1.19899 0.309,0.48305 0.73861,0.78934 1.27534,0.90926 h 4.3e-4 c 0.3455,0.0772 0.85422,0.032 1.19412,-0.10606 0.30696,-0.12474 0.63387,-0.38649 0.85555,-0.68471 0.21819,-0.29354 0.38385,-0.76402 0.38385,-1.09028 v -0.12648 l 0.37096,-0.12246 c 1.62789,-0.53823 2.93412,-1.84444 3.47233,-3.47231 l 0.12248,-0.371 0.13178,-4.3e-4 c 0.27778,-8.5e-4 0.64934,-0.11496 0.94474,-0.28977 0.33048,-0.19557 0.68399,-0.6023 0.82493,-0.94916 0.21843,-0.53769 0.18646,-1.20854 -0.0812,-1.70179 -0.28785,-0.53042 -0.77846,-0.90086 -1.38493,-1.04545 -0.18434,-0.0435 -0.27872,-0.0508 -0.53605,-0.0399 -0.17179,0.007 -0.33573,0.0203 -0.36431,0.0293 -0.0436,0.0137 -0.0699,-0.015 -0.16198,-0.17751 -0.28052,-0.49486 -0.89233,-1.17534 -1.38671,-1.54245 -0.46416,-0.34468 -0.96251,-0.61359 -1.48079,-0.80451 z m -3.764315,1.28508 c -0.18876,0.0968 -0.28621,0.17428 -0.28621,0.23386 0,0.0326 0.0833,0.16085 0.19746,0.32348 0.0538,-0.18283 0.0842,-0.36974 0.0888,-0.55734 z m 7.325395,1.7559 c 0.63722,0.004 1.1957,0.45137 1.36896,1.1147 0.0609,0.23299 0.0421,0.65754 -0.0381,0.85599 -0.0822,0.20337 -0.27068,0.47635 -0.41311,0.59817 -0.15463,0.13223 -0.38933,0.24824 -0.60483,0.29908 -0.17864,0.0421 -0.47734,0.0477 -0.68425,0.0129 -0.35884,-0.0602 -0.74898,-0.3589 -0.93321,-0.71442 -0.24387,-0.47051 -0.25861,-0.89758 -0.0461,-1.33213 0.2394,-0.48968 0.66847,-0.78066 1.22254,-0.82892 0.0431,-0.003 0.0858,-0.006 0.12823,-0.005 z m -5.998155,6.02829 c 0.21655,0.0109 0.43809,0.0695 0.65099,0.18106 0.36506,0.19127 0.65506,0.57783 0.7162,0.9545 0.12246,0.75369 -0.22024,1.39746 -0.88837,1.66893 -0.18676,0.0759 -0.43572,0.10812 -0.6603,0.0852 -0.9368,-0.0956 -1.53307,-0.96269 -1.27222,-1.85042 0.19866,-0.67607 0.8041,-1.0719 1.4537,-1.03928 z"
         style="fill:#ffffff;stroke:#ffffff;stroke-width:0.08044317;stroke-opacity:1" />
    </g>
  </g>
</svg>
