<?xml version="1.0" encoding="UTF-8" standalone="no"?>
<!-- Created with Inkscape (http://www.inkscape.org/) -->

<svg
   xmlns:dc="http://purl.org/dc/elements/1.1/"
   xmlns:cc="http://creativecommons.org/ns#"
   xmlns:rdf="http://www.w3.org/1999/02/22-rdf-syntax-ns#"
   xmlns:svg="http://www.w3.org/2000/svg"
   xmlns="http://www.w3.org/2000/svg"
   xmlns:sodipodi="http://sodipodi.sourceforge.net/DTD/sodipodi-0.dtd"
   xmlns:inkscape="http://www.inkscape.org/namespaces/inkscape"
   width="39.6875mm"
   height="34.393982mm"
   viewBox="0 0 39.6875 34.393982"
   version="1.1"
   id="svg5101"
   inkscape:version="0.92.3 (unknown)"
   sodipodi:docname="program-digital-rights.svg">
  <defs
     id="defs5095" />
  <sodipodi:namedview
     id="base"
     pagecolor="#ffffff"
     bordercolor="#666666"
     borderopacity="1.0"
     inkscape:pageopacity="0.0"
     inkscape:pageshadow="2"
     inkscape:zoom="1.4519531"
     inkscape:cx="10.175081"
     inkscape:cy="-5.189145"
     inkscape:document-units="mm"
     inkscape:current-layer="layer1"
     showgrid="false"
     fit-margin-top="0"
     fit-margin-left="0"
     fit-margin-right="0"
     fit-margin-bottom="0"
     inkscape:window-width="2560"
     inkscape:window-height="1392"
     inkscape:window-x="0"
     inkscape:window-y="48"
     inkscape:window-maximized="1" />
  <metadata
     id="metadata5098">
    <rdf:RDF>
      <cc:Work
         rdf:about="">
        <dc:format>image/svg+xml</dc:format>
        <dc:type
           rdf:resource="http://purl.org/dc/dcmitype/StillImage" />
        <dc:title></dc:title>
      </cc:Work>
    </rdf:RDF>
  </metadata>
  <g
     inkscape:label="Layer 1"
     inkscape:groupmode="layer"
     id="layer1"
     transform="translate(-33.730637,-113.06639)">
    <g
       id="g6970"
       transform="matrix(1.2431137,0,0,1.2431137,-324.45514,-560.08594)"
       style="stroke-width:0.80443168">
      <path
         transform="matrix(0.09894598,0.42321549,-0.42321549,0.09894598,458.72788,552.39885)"
         inkscape:transform-center-y="0.38981119"
         inkscape:transform-center-x="0.43783402"
         d="m -47.586074,373.06176 -35.139928,10.68246 -26.821248,-25.09085 8.31869,-35.7733 35.139926,-10.68245 26.821245,25.09084 z"
         inkscape:randomized="0"
         inkscape:rounded="0"
         inkscape:flatsided="true"
         sodipodi:arg2="1.2756759"
         sodipodi:arg1="0.75207717"
         sodipodi:r2="18.35096"
         sodipodi:r1="36.727776"
         sodipodi:cy="347.97092"
         sodipodi:cx="-74.407318"
         sodipodi:sides="6"
         id="path357-7-7-8"
         style="opacity:1;fill:#d55b4b;fill-opacity:1;stroke:none;stroke-width:0.60332376;stroke-linecap:butt;stroke-linejoin:round;stroke-miterlimit:4;stroke-dasharray:none;stroke-dashoffset:0;stroke-opacity:1"
         sodipodi:type="star" />
      <path
         inkscape:connector-curvature="0"
         id="path357-3-0-9-9"
         d="m 312.14344,541.57377 -16.10099,27.37168 0.0916,0.15854 15.9629,-0.0189 7.9649,-13.83397 z"
         style="opacity:1;fill:#b43a2a;fill-opacity:1;stroke:none;stroke-width:0.26222154;stroke-linecap:butt;stroke-linejoin:round;stroke-miterlimit:4;stroke-dasharray:none;stroke-dashoffset:0;stroke-opacity:1" />
      <path
         inkscape:connector-curvature="0"
         id="path14732"
         d="m 304.17218,564.51053 c -0.0279,-0.0246 -0.13454,-0.0768 -0.23712,-0.11584 -0.47107,-0.17961 -1.80516,-0.82358 -2.52072,-1.21676 -1.94832,-1.07054 -3.11983,-2.07894 -3.62541,-3.12068 -0.70431,-1.45118 -0.87976,-3.69734 -0.53731,-6.87825 0.14744,-1.36952 0.4951,-3.44494 0.61753,-3.68645 0.0884,-0.17424 0.26905,-0.21832 1.03051,-0.25129 1.5495,-0.0672 2.98529,-0.44261 4.17577,-1.09211 0.21091,-0.11507 0.53067,-0.36826 0.79767,-0.63165 0.57795,-0.57008 0.63779,-0.57483 1.09217,-0.0865 0.1807,0.19422 0.46044,0.44271 0.62162,0.5522 1.04414,0.70925 2.68297,1.181 4.36934,1.25775 0.73616,0.0335 0.91684,0.0788 1.0028,0.25157 0.12204,0.24527 0.4281,2.05435 0.59474,3.51545 0.34764,3.04816 0.22564,5.23677 -0.37585,6.74228 -0.50374,1.26083 -1.63747,2.27799 -3.92351,3.52006 -0.64225,0.34895 -1.90078,0.94836 -2.36021,1.12411 -0.10259,0.0393 -0.20929,0.0914 -0.23713,0.11609 -0.0278,0.0246 -0.13693,0.0447 -0.24245,0.0447 -0.10554,0 -0.21459,-0.0201 -0.24244,-0.0447 z m 0.87437,-1.10576 c 1.94941,-0.84123 3.68665,-1.93513 4.62335,-2.91123 0.50131,-0.52241 0.70661,-0.90227 0.90031,-1.66584 0.2287,-0.90156 0.26547,-1.33632 0.26137,-3.09104 -0.003,-1.36035 -0.0248,-1.82542 -0.1225,-2.63563 -0.13422,-1.11292 -0.42237,-2.88889 -0.47694,-2.93947 -0.0199,-0.0184 -0.37181,-0.0613 -0.78211,-0.0953 -2.02606,-0.16773 -3.79389,-0.78937 -4.75161,-1.67085 l -0.22239,-0.20471 -0.3371,0.27211 c -1.13808,0.91871 -2.85699,1.47754 -5.01424,1.63019 -0.28653,0.0202 -0.53052,0.0524 -0.54221,0.0712 -0.0457,0.074 -0.35596,2.05206 -0.46023,2.93475 -0.15586,1.31919 -0.19671,3.50902 -0.0835,4.47592 0.1004,0.85774 0.28825,1.63054 0.50838,2.09179 0.44535,0.93316 1.85612,2.05319 3.9226,3.11421 0.68735,0.35292 1.8334,0.86607 1.9374,0.86747 0.0398,6e-4 0.32756,-0.10915 0.63941,-0.24369 z m -1.29798,-4.45546 c -0.25893,-0.14849 -0.31221,-0.41532 -0.12935,-0.64779 0.10839,-0.13773 0.12258,-0.1404 0.74949,-0.1404 0.35149,0 0.68292,0.0235 0.73652,0.0522 0.26042,0.13937 0.2289,0.58977 -0.0512,0.73144 -0.16927,0.0856 -1.15812,0.0891 -1.30547,0.004 z m 1.7431,-1.2557 c -0.41203,-0.41642 -0.63026,-0.51632 -1.13032,-0.51739 -0.46879,-10e-4 -0.72569,0.12102 -1.11047,0.52746 -0.17317,0.18293 -0.27081,0.24429 -0.38873,0.24429 -0.22142,0 -0.41905,-0.21043 -0.41905,-0.4462 0,-0.28039 0.42695,-0.72118 0.94794,-0.97866 0.39459,-0.19504 0.42083,-0.20032 0.99419,-0.20032 0.52781,0 0.62058,0.0149 0.8945,0.14323 0.39825,0.18666 0.65154,0.38331 0.90254,0.70079 0.2453,0.31027 0.25664,0.47019 0.0481,0.67869 -0.23787,0.23788 -0.38251,0.20814 -0.73874,-0.15189 z m 1.76738,-0.75596 c -0.0621,-0.0257 -0.16461,-0.13043 -0.22781,-0.2327 -0.31804,-0.51461 -1.17567,-1.10905 -1.85167,-1.28345 -0.69052,-0.17815 -1.63856,-0.079 -2.25829,0.23623 -0.33682,0.1713 -0.8197,0.57131 -1.05143,0.87096 -0.12478,0.16137 -0.27638,0.30911 -0.33688,0.3283 -0.25979,0.0825 -0.58184,-0.14212 -0.58184,-0.40575 0,-0.19816 0.41483,-0.73725 0.81947,-1.06492 0.42222,-0.34189 1.02302,-0.65253 1.55471,-0.80382 0.33336,-0.0948 0.55907,-0.12044 1.06267,-0.12044 0.75947,0 1.25043,0.11835 1.90615,0.45949 0.67915,0.35333 1.584,1.27906 1.584,1.62054 0,0.26551 -0.36695,0.49997 -0.61908,0.39556 z m 1.28814,-1.26118 c -0.54102,-0.61749 -0.87967,-0.95302 -1.20108,-1.18998 -0.6007,-0.44288 -1.37528,-0.77642 -2.10203,-0.90514 -0.46552,-0.0825 -1.41394,-0.0682 -1.88407,0.0283 -0.54152,0.11118 -1.28954,0.42247 -1.74709,0.72706 -0.32348,0.21534 -0.9343,0.80423 -1.36168,1.31281 -0.17112,0.20362 -0.46133,0.23139 -0.63223,0.0605 -0.27624,-0.27624 -0.0629,-0.69182 0.75227,-1.46576 1.10528,-1.04931 2.456,-1.58715 3.99007,-1.58878 1.242,-10e-4 2.32837,0.33124 3.35138,1.02596 0.59677,0.40525 1.46594,1.3103 1.59599,1.66189 0.0665,0.17976 -0.0284,0.4086 -0.20817,0.50152 -0.2364,0.12226 -0.32138,0.0964 -0.55336,-0.16838 z"
         style="fill:#ffffff;stroke-width:0.04286389" />
    </g>
  </g>
</svg>
