<?xml version="1.0" encoding="UTF-8" standalone="no"?>
<!-- Created with Inkscape (http://www.inkscape.org/) -->

<svg
   xmlns:dc="http://purl.org/dc/elements/1.1/"
   xmlns:cc="http://creativecommons.org/ns#"
   xmlns:rdf="http://www.w3.org/1999/02/22-rdf-syntax-ns#"
   xmlns:svg="http://www.w3.org/2000/svg"
   xmlns="http://www.w3.org/2000/svg"
   xmlns:sodipodi="http://sodipodi.sourceforge.net/DTD/sodipodi-0.dtd"
   xmlns:inkscape="http://www.inkscape.org/namespaces/inkscape"
   width="39.6875mm"
   height="34.393982mm"
   viewBox="0 0 39.6875 34.393982"
   version="1.1"
   id="svg5101"
   inkscape:version="0.92.3 (unknown)"
   sodipodi:docname="program-tech-community.svg">
  <defs
     id="defs5095" />
  <sodipodi:namedview
     id="base"
     pagecolor="#ffffff"
     bordercolor="#666666"
     borderopacity="1.0"
     inkscape:pageopacity="0.0"
     inkscape:pageshadow="2"
     inkscape:zoom="1.4519531"
     inkscape:cx="10.175081"
     inkscape:cy="-5.189145"
     inkscape:document-units="mm"
     inkscape:current-layer="layer1"
     showgrid="false"
     fit-margin-top="0"
     fit-margin-left="0"
     fit-margin-right="0"
     fit-margin-bottom="0"
     inkscape:window-width="2560"
     inkscape:window-height="1392"
     inkscape:window-x="0"
     inkscape:window-y="48"
     inkscape:window-maximized="1" />
  <metadata
     id="metadata5098">
    <rdf:RDF>
      <cc:Work
         rdf:about="">
        <dc:format>image/svg+xml</dc:format>
        <dc:type
           rdf:resource="http://purl.org/dc/dcmitype/StillImage" />
        <dc:title></dc:title>
      </cc:Work>
    </rdf:RDF>
  </metadata>
  <g
     inkscape:label="Layer 1"
     inkscape:groupmode="layer"
     id="layer1"
     transform="translate(-33.730637,-113.06639)">
    <g
       id="g6965"
       transform="matrix(1.2431137,0,0,1.2431137,-324.16213,-504.53814)"
       style="stroke-width:0.80443168">
      <path
         transform="matrix(0.09894598,0.42321549,-0.42321549,0.09894598,458.49217,507.71444)"
         inkscape:transform-center-y="0.38981119"
         inkscape:transform-center-x="0.43783402"
         d="m -47.586074,373.06176 -35.139928,10.68246 -26.821248,-25.09085 8.31869,-35.7733 35.139926,-10.68245 26.821245,25.09084 z"
         inkscape:randomized="0"
         inkscape:rounded="0"
         inkscape:flatsided="true"
         sodipodi:arg2="1.2756759"
         sodipodi:arg1="0.75207717"
         sodipodi:r2="18.35096"
         sodipodi:r1="36.727776"
         sodipodi:cy="347.97092"
         sodipodi:cx="-74.407318"
         sodipodi:sides="6"
         id="path357-7-7"
         style="opacity:1;fill:#ebc756;fill-opacity:1;stroke:none;stroke-width:0.60332376;stroke-linecap:butt;stroke-linejoin:round;stroke-miterlimit:4;stroke-dasharray:none;stroke-dashoffset:0;stroke-opacity:1"
         sodipodi:type="star" />
      <path
         inkscape:connector-curvature="0"
         id="path357-3-0-9"
         d="m 311.90773,496.88935 -16.10097,27.37168 0.0916,0.15854 15.96288,-0.0189 7.9649,-13.83397 z"
         style="opacity:1;fill:#e9a311;fill-opacity:1;stroke:none;stroke-width:0.26222154;stroke-linecap:butt;stroke-linejoin:round;stroke-miterlimit:4;stroke-dasharray:none;stroke-dashoffset:0;stroke-opacity:1" />
      <path
         inkscape:connector-curvature="0"
         id="path14706"
         d="m 296.04665,515.90832 c -0.61001,-0.14819 -1.13883,-0.91845 -1.13883,-1.65878 0,-0.55804 0.12152,-0.64458 0.90508,-0.64458 h 0.55262 v -4.35285 c 0,-3.79221 0.0183,-4.37892 0.14183,-4.55532 l 0.14183,-0.20249 h 7.36929 7.36929 l 0.14183,0.20249 c 0.12356,0.1764 0.14182,0.76311 0.14182,4.55532 v 4.35285 h 0.55263 c 0.78355,0 0.90508,0.0865 0.90508,0.64458 0,0.71973 -0.43079,1.39964 -1.03088,1.62701 -0.25704,0.0974 -15.65603,0.12787 -16.05159,0.0318 z m 16.02232,-0.99474 c 0.49147,-0.49147 0.50767,-0.48867 -2.82028,-0.48867 -2.92252,0 -3.07092,0.008 -3.29212,0.18222 -0.21255,0.16719 -0.3696,0.18221 -1.90483,0.18221 -1.55171,0 -1.68641,-0.0132 -1.8554,-0.18221 -0.17517,-0.17517 -0.30369,-0.18222 -3.32538,-0.18222 -1.86058,0 -3.14318,0.0343 -3.14318,0.0841 0,0.0463 0.10614,0.21026 0.23586,0.36443 l 0.23587,0.2803 h 7.81464 7.81463 z m -1.21752,-5.45397 v -4.14535 h -6.83298 -6.83299 v 4.14535 4.14535 h 6.83299 6.83298 z m -8.45076,2.94665 c -0.0623,-0.0623 -0.11324,-0.16634 -0.11324,-0.23123 0,-0.26249 2.41811,-4.95091 2.57999,-5.00229 0.19484,-0.0618 0.51968,0.19799 0.51322,0.41053 -0.002,0.0799 -0.54565,1.21126 -1.20717,2.51408 -1.05439,2.0766 -1.23091,2.37207 -1.43115,2.39546 -0.12562,0.0147 -0.27936,-0.0243 -0.34165,-0.0865 z m -1.77764,-1.51335 c -0.54145,-0.54349 -0.88658,-0.96235 -0.88658,-1.07598 0,-0.19211 1.79799,-2.04279 1.98463,-2.04279 0.16163,0 0.38414,0.27368 0.38414,0.4725 0,0.10847 -0.28429,0.4783 -0.68119,0.88616 l -0.68119,0.69998 0.68119,0.67665 c 0.6742,0.66969 0.80334,0.93258 0.57186,1.16407 -0.24299,0.24298 -0.49703,0.0985 -1.37286,-0.78059 z m 5.02045,0.66584 c -0.0944,-0.20717 -0.0496,-0.27987 0.59414,-0.96418 0.38293,-0.40705 0.69624,-0.76848 0.69624,-0.80315 0,-0.0347 -0.30748,-0.36849 -0.68329,-0.74179 -0.37582,-0.37331 -0.68331,-0.74919 -0.68331,-0.83529 0,-0.20176 0.32892,-0.43243 0.53848,-0.37763 0.20199,0.0528 1.7839,1.65165 1.86508,1.88503 0.046,0.13219 -0.15173,0.38569 -0.87046,1.11606 -0.99776,1.01393 -1.26348,1.14543 -1.45688,0.72095 z"
         style="fill:#ffffff;stroke-width:0.07328898" />
    </g>
  </g>
</svg>
