<?xml version="1.0" encoding="UTF-8" standalone="no"?>
<!-- Created with Inkscape (http://www.inkscape.org/) -->

<svg
   xmlns:dc="http://purl.org/dc/elements/1.1/"
   xmlns:cc="http://creativecommons.org/ns#"
   xmlns:rdf="http://www.w3.org/1999/02/22-rdf-syntax-ns#"
   xmlns:svg="http://www.w3.org/2000/svg"
   xmlns="http://www.w3.org/2000/svg"
   xmlns:sodipodi="http://sodipodi.sourceforge.net/DTD/sodipodi-0.dtd"
   xmlns:inkscape="http://www.inkscape.org/namespaces/inkscape"
   width="39.6875mm"
   height="34.393982mm"
   viewBox="0 0 39.6875 34.393982"
   version="1.1"
   id="svg5101"
   inkscape:version="0.92.3 (unknown)"
   sodipodi:docname="program-ict-university-students.svg">
  <defs
     id="defs5095" />
  <sodipodi:namedview
     id="base"
     pagecolor="#ffffff"
     bordercolor="#666666"
     borderopacity="1.0"
     inkscape:pageopacity="0.0"
     inkscape:pageshadow="2"
     inkscape:zoom="1.4519531"
     inkscape:cx="10.175081"
     inkscape:cy="-5.189145"
     inkscape:document-units="mm"
     inkscape:current-layer="layer1"
     showgrid="false"
     fit-margin-top="0"
     fit-margin-left="0"
     fit-margin-right="0"
     fit-margin-bottom="0"
     inkscape:window-width="2560"
     inkscape:window-height="1392"
     inkscape:window-x="0"
     inkscape:window-y="48"
     inkscape:window-maximized="1" />
  <metadata
     id="metadata5098">
    <rdf:RDF>
      <cc:Work
         rdf:about="">
        <dc:format>image/svg+xml</dc:format>
        <dc:type
           rdf:resource="http://purl.org/dc/dcmitype/StillImage" />
        <dc:title></dc:title>
      </cc:Work>
    </rdf:RDF>
  </metadata>
  <g
     inkscape:label="Layer 1"
     inkscape:groupmode="layer"
     id="layer1"
     transform="translate(-33.730637,-113.06639)">
    <g
       id="g6960"
       transform="matrix(1.2431137,0,0,1.2431137,-324.92775,-450.71158)"
       style="stroke-width:0.80443168">
      <path
         transform="matrix(0.09894598,0.42321549,-0.42321549,0.09894598,459.10806,464.41465)"
         inkscape:transform-center-y="0.38981119"
         inkscape:transform-center-x="0.43783402"
         d="m -47.586074,373.06176 -35.139928,10.68246 -26.821248,-25.09085 8.31869,-35.7733 35.139926,-10.68245 26.821245,25.09084 z"
         inkscape:randomized="0"
         inkscape:rounded="0"
         inkscape:flatsided="true"
         sodipodi:arg2="1.2756759"
         sodipodi:arg1="0.75207717"
         sodipodi:r2="18.35096"
         sodipodi:r1="36.727776"
         sodipodi:cy="347.97092"
         sodipodi:cx="-74.407318"
         sodipodi:sides="6"
         id="path357-7"
         style="opacity:1;fill:#507896;fill-opacity:1;stroke:none;stroke-width:0.60332376;stroke-linecap:butt;stroke-linejoin:round;stroke-miterlimit:4;stroke-dasharray:none;stroke-dashoffset:0;stroke-opacity:1"
         sodipodi:type="star" />
      <path
         inkscape:connector-curvature="0"
         id="path357-3-0"
         d="m 312.52362,453.58955 -16.101,27.37168 0.0916,0.15854 15.96291,-0.0189 7.9649,-13.83397 z"
         style="opacity:1;fill:#3a4e5d;fill-opacity:1;stroke:none;stroke-width:0.26222154;stroke-linecap:butt;stroke-linejoin:round;stroke-miterlimit:4;stroke-dasharray:none;stroke-dashoffset:0;stroke-opacity:1" />
      <path
         inkscape:connector-curvature="0"
         id="path14719"
         d="m 303.83468,476.39163 c -1.07812,-0.18081 -1.91073,-0.54365 -2.76162,-1.20346 -1.24323,-0.96405 -2.04893,-2.44409 -2.20246,-4.04586 -0.0272,-0.28377 -0.0452,-0.33302 -0.12937,-0.3549 -0.21316,-0.0554 -0.80115,-0.48088 -0.93554,-0.67699 -0.37821,-0.55186 -0.44342,-1.28996 -0.16597,-1.8782 0.0773,-0.16379 0.18123,-0.3473 0.23104,-0.40779 0.0902,-0.10953 0.0902,-0.11124 -0.005,-0.41346 -0.0914,-0.2926 -0.0948,-0.40402 -0.0951,-3.10583 -3.4e-4,-2.77351 6.9e-4,-2.80613 0.10374,-3.16986 0.45288,-1.59925 1.80949,-2.75117 3.43014,-2.91259 0.44859,-0.0447 0.50375,-0.0361 0.65733,0.10212 0.0945,0.0851 0.10336,0.13363 0.10336,0.56834 v 0.4753 l 0.17228,-0.0875 c 0.36301,-0.18441 0.94691,-0.3354 1.39681,-0.36119 0.43189,-0.0248 0.44671,-0.0223 0.56278,0.0937 0.1132,0.11322 0.11919,0.14352 0.11919,0.60279 0,0.46396 0.005,0.48454 0.10337,0.50691 0.0569,0.0128 1.23005,0.22087 2.6071,0.46233 1.37706,0.24146 2.63813,0.46941 2.80236,0.50657 0.83692,0.18934 1.47583,0.83437 1.64901,1.66483 0.0336,0.16093 0.0508,1.11528 0.0508,2.81566 0,2.42208 0.005,2.58217 0.086,2.74266 0.14278,0.28303 0.24866,0.78812 0.21869,1.04331 -0.0148,0.12634 -0.10035,0.37842 -0.19003,0.56019 -0.19225,0.38965 -0.55341,0.73963 -0.92016,0.89164 l -0.23839,0.0988 -0.0271,0.35022 c -0.0504,0.64999 -0.25102,1.31955 -0.60731,2.02703 -0.78881,1.5663 -2.26607,2.68353 -4.04118,3.05628 -0.48939,0.10276 -1.50447,0.1279 -1.97542,0.0489 z m 2.05708,-0.82569 c 0.48831,-0.12574 1.15972,-0.42354 1.58126,-0.70134 0.38345,-0.25269 1.07127,-0.93217 1.3462,-1.32988 0.31918,-0.46169 0.62239,-1.11625 0.76882,-1.65969 0.11784,-0.43727 0.12152,-0.49211 0.13909,-2.06856 l 0.018,-1.61939 h -0.22705 -0.22705 l -0.029,0.21161 c -0.0604,0.44027 -0.42944,0.9092 -0.80391,1.0214 -0.22004,0.066 -2.07564,0.0727 -2.29982,0.008 -0.39876,-0.11437 -0.74366,-0.51743 -0.84137,-0.9833 l -0.0542,-0.25814 h -0.51502 -0.51502 l -0.0496,0.23121 c -0.0711,0.33158 -0.2002,0.55844 -0.43575,0.76579 -0.3027,0.26644 -0.42937,0.28938 -1.59491,0.28887 -0.98019,-3.5e-4 -1.03908,-0.006 -1.25836,-0.10757 -0.38167,-0.17773 -0.64923,-0.5425 -0.69762,-0.95108 l -0.0269,-0.22722 h -0.26924 -0.26925 v 1.55895 c 0,1.1893 0.0158,1.63321 0.0668,1.87206 0.44296,2.07712 2.04745,3.64118 4.13675,4.03252 0.54797,0.10264 1.47847,0.0643 2.05707,-0.0846 z m -2.32882,-2.09735 c -0.74138,-0.11714 -1.41808,-0.39175 -1.91985,-0.77911 -0.42676,-0.32945 -0.50822,-0.58888 -0.24008,-0.76457 0.14686,-0.0962 0.27909,-0.0573 0.50262,0.1477 0.54875,0.50341 1.1433,0.73754 2.09202,0.82381 0.91111,0.0829 2.1867,-0.25147 2.98547,-0.78249 0.39594,-0.26322 0.8704,-0.76689 1.03032,-1.09375 0.10056,-0.20555 0.15685,-0.2666 0.28466,-0.30879 0.13506,-0.0445 0.17271,-0.0405 0.24715,0.0269 0.13675,0.12376 0.14589,0.22071 0.0433,0.45994 -0.23705,0.55302 -0.81774,1.16673 -1.47243,1.55617 -0.43636,0.25956 -1.16859,0.54221 -1.67358,0.64602 -0.43775,0.09 -1.49814,0.12845 -1.87965,0.0682 z m 7.19198,-3.61223 c 0.26052,-0.28031 0.36155,-0.67668 0.25802,-1.01229 -0.0709,-0.22961 -0.31118,-0.58376 -0.44467,-0.6552 -0.0949,-0.0508 -0.0952,-0.0481 -0.0952,0.91701 0,0.90787 0.005,0.96527 0.0804,0.92437 0.0442,-0.024 0.13488,-0.10223 0.20148,-0.17389 z m -11.97126,-1.75112 c -0.0432,-0.0432 -0.25606,0.13128 -0.3677,0.30117 -0.2001,0.30453 -0.23801,0.55001 -0.14097,0.91265 0.0694,0.25938 0.12166,0.3517 0.29531,0.52187 l 0.21098,0.20672 0.0124,-0.95996 c 0.006,-0.52798 0.003,-0.97008 -0.01,-0.98245 z m 4.48387,0.55544 c 0.16958,-0.16968 0.14028,-0.24924 -0.12387,-0.33642 -0.19835,-0.0654 -0.4248,0.0318 -0.54411,0.23382 -0.11214,0.18985 -0.2707,0.24573 -0.4436,0.15632 -0.26702,-0.13808 -0.22088,-0.44088 0.11424,-0.7498 0.23393,-0.21562 0.45844,-0.29676 0.76277,-0.27566 0.12514,0.008 0.22752,9.2e-4 0.2275,-0.0171 -9e-5,-0.10071 -0.25322,-0.12795 -1.18889,-0.12795 -0.99865,0 -1.01271,0.002 -1.13822,0.10931 -0.11147,0.0959 -0.1292,0.14808 -0.14436,0.42495 -0.0149,0.27298 -0.003,0.33727 0.0915,0.47576 0.18227,0.26844 0.23356,0.27901 1.28814,0.26551 l 0.95247,-0.0121 z m 4.95306,0.11079 c 0.40026,-0.20254 0.4379,-0.88424 0.0651,-1.17756 -0.11486,-0.0904 -0.17799,-0.0959 -1.0828,-0.0959 -0.98257,0 -1.18116,0.0312 -1.24416,0.1954 -0.0183,0.0478 0.0385,0.0571 0.26237,0.0428 0.31166,-0.0199 0.52057,0.0566 0.80202,0.29341 0.366,0.30796 0.33792,0.70692 -0.0499,0.70951 -0.0688,5.3e-4 -0.16595,-0.0685 -0.27492,-0.19524 -0.15248,-0.17729 -0.18847,-0.19596 -0.37773,-0.19596 -0.15018,0 -0.23598,0.0268 -0.30412,0.0949 l -0.0949,0.0949 0.0946,0.12021 c 0.052,0.0662 0.14066,0.12912 0.19701,0.14001 0.0563,0.0109 0.50558,0.0223 0.99829,0.0254 0.6353,0.004 0.92883,-0.0111 1.0093,-0.0518 z m -7.91311,-1.43004 c 0.0785,-0.11137 0.2427,-0.26124 0.36488,-0.33307 l 0.22216,-0.13057 h 1.1485 1.1485 l 0.22216,0.13057 c 0.12218,0.0719 0.28638,0.2217 0.36488,0.33307 l 0.14272,0.20248 0.66877,-0.003 0.66878,-0.003 0.13899,-0.1914 c 0.16555,-0.22798 0.38238,-0.38242 0.63075,-0.4493 0.11157,-0.0301 0.58279,-0.0433 1.22196,-0.0343 0.9092,0.0127 1.06061,0.0253 1.20114,0.10018 0.20647,0.10998 0.40392,0.29386 0.48764,0.45415 0.0616,0.11802 0.0856,0.12634 0.36343,0.12634 h 0.29744 v -1.19884 c 0,-1.31224 -0.0106,-1.37073 -0.27747,-1.52837 -0.17136,-0.10122 -0.35278,-0.095 -1.0677,0.0368 -2.5196,0.46441 -5.32974,0.44938 -7.65062,-0.0409 -0.18484,-0.0391 -0.44015,-0.071 -0.56737,-0.071 -0.20177,0 -0.25121,0.02 -0.38748,0.15619 l -0.1562,0.1562 v 1.24498 1.24497 h 0.33571 0.33571 l 0.14272,-0.20248 z m 10.5237,-2.59986 -0.0136,-1.86057 -0.12771,-0.26006 c -0.22467,-0.4575 -0.61715,-0.73367 -1.16492,-0.81969 -0.1734,-0.0272 -1.4213,-0.24414 -2.77308,-0.48202 -1.35179,-0.23788 -2.567,-0.44652 -2.70046,-0.46365 -0.36179,-0.0465 -0.42347,-0.14712 -0.42347,-0.69125 0,-0.23663 -0.012,-0.43023 -0.0268,-0.43023 -0.0852,0 -0.77767,0.1971 -0.94565,0.26916 -0.10947,0.0469 -0.33144,0.17098 -0.49327,0.27562 -0.36782,0.23783 -0.49968,0.24317 -0.68871,0.0279 l -0.14257,-0.16238 v -0.57266 c 0,-0.31496 -0.0174,-0.57265 -0.0386,-0.57265 -0.0212,0 -0.19798,0.0408 -0.3928,0.0906 -1.11543,0.28528 -1.99579,1.1677 -2.2822,2.28756 -0.0825,0.32278 -0.0887,0.52531 -0.0877,2.90082 9.2e-4,2.24191 0.0223,2.84512 0.10316,2.92605 0.0112,0.0112 0.0544,0.007 0.0959,-0.008 0.0668,-0.0257 0.0754,-0.14234 0.0754,-1.0095 0,-0.53929 0.0225,-1.08526 0.0499,-1.21325 0.071,-0.33124 0.29287,-0.63859 0.5881,-0.8148 0.41663,-0.24866 0.50351,-0.24836 1.86573,0.006 2.26326,0.42364 4.87714,0.3884 7.16666,-0.0966 0.36895,-0.0781 0.62911,-0.10894 0.78661,-0.093 0.43732,0.0441 0.85947,0.34184 1.09979,0.77565 l 0.13497,0.24364 0.0143,1.15299 0.0143,1.15299 0.14648,0.0695 0.1465,0.0695 0.0136,-0.41854 c 0.007,-0.23019 0.007,-1.25579 0,-2.27911 z"
         style="fill:#ffffff;stroke-width:0.03695567" />
    </g>
  </g>
</svg>
