<?xml version="1.0" encoding="UTF-8" standalone="no"?>
<!-- Created with Inkscape (http://www.inkscape.org/) -->

<svg
   xmlns:dc="http://purl.org/dc/elements/1.1/"
   xmlns:cc="http://creativecommons.org/ns#"
   xmlns:rdf="http://www.w3.org/1999/02/22-rdf-syntax-ns#"
   xmlns:svg="http://www.w3.org/2000/svg"
   xmlns="http://www.w3.org/2000/svg"
   xmlns:sodipodi="http://sodipodi.sourceforge.net/DTD/sodipodi-0.dtd"
   xmlns:inkscape="http://www.inkscape.org/namespaces/inkscape"
   width="73.901253mm"
   height="46.795616mm"
   viewBox="0 0 73.901253 46.795616"
   version="1.1"
   id="svg1925"
   inkscape:version="0.92.4 (unknown)"
   sodipodi:docname="drop.svg">
  <defs
     id="defs1919" />
  <sodipodi:namedview
     id="base"
     pagecolor="#ffffff"
     bordercolor="#666666"
     borderopacity="1.0"
     inkscape:pageopacity="0.0"
     inkscape:pageshadow="2"
     inkscape:zoom="1.6023437"
     inkscape:cx="207.64225"
     inkscape:cy="54.302962"
     inkscape:document-units="mm"
     inkscape:current-layer="layer1"
     showgrid="false"
     fit-margin-top="0"
     fit-margin-left="0"
     fit-margin-right="0"
     fit-margin-bottom="0"
     inkscape:window-width="2560"
     inkscape:window-height="1398"
     inkscape:window-x="0"
     inkscape:window-y="42"
     inkscape:window-maximized="1" />
  <metadata
     id="metadata1922">
    <rdf:RDF>
      <cc:Work
         rdf:about="">
        <dc:format>image/svg+xml</dc:format>
        <dc:type
           rdf:resource="http://purl.org/dc/dcmitype/StillImage" />
        <dc:title></dc:title>
      </cc:Work>
    </rdf:RDF>
  </metadata>
  <g
     inkscape:label="Layer 1"
     inkscape:groupmode="layer"
     id="layer1"
     transform="translate(-9.11861,-116.40538)">
    <path
       inkscape:export-ydpi="96"
       inkscape:export-xdpi="96"
       inkscape:export-filename="/home/issa/flowRoot7051-3-9-1-0-2.png"
       sodipodi:nodetypes="cccsccccccccccccccccccccccccccccccc"
       inkscape:connector-curvature="0"
       id="path4977-3-8-9-5-0"
       d="m 46.564571,116.40695 c -2.945279,0.0379 -5.89129,0.24164 -8.79951,0.68027 -2.41049,0.357 -4.794776,0.87691 -7.113186,1.58498 -2.9813,0.90983 -5.85578,2.13961 -8.48371,3.73116 -2.438,1.47053 -4.66058,3.25379 -6.52959,5.31839 -1.36359,1.50278 -2.54059,3.14854 -3.51169,4.89175 -1.23441,2.21374 -2.1425102,4.57808 -2.7512102,7.00225 -0.088,0.39565 -0.1985,0.78914 -0.2436,1.19171 -0.065,0.73308 0.1192,1.4564 0.256,2.1735 0.3563,1.75725 0.8187002,3.50239 1.5067002,5.17596 0.9098,2.21295 2.261,4.27075 3.96539,6.03882 1.20661,1.25717 2.60662,2.34845 4.10771,3.29399 2.17839,1.36837 4.57369,2.42464 7.0503,3.24442 3.46501,1.14361 7.09541,1.82129 10.749986,2.17879 2.105509,0.20199 4.222811,0.29306 6.339501,0.28784 2.886308,-0.003 5.771809,-0.17637 8.63531,-0.5081 2.476288,-0.27694 4.939109,-0.65522 7.380999,-1.12472 2.526911,-0.47506 5.033812,-1.03433 7.544311,-1.57678 1.403188,-0.31211 2.8131,-0.60174 4.2033,-0.96139 1.6002,-0.43831 3.114379,-1.1389 4.4591,-2.05124 1.644999,-1.10151 3.0153,-2.52881 4.10718,-4.10559 0.699108,-1.01179 1.28752,-2.08754 1.771711,-3.2009 0.679,-1.5684 1.156988,-3.20908 1.4488,-4.87585 0.258498,-1.48802 0.381209,-2.99662 0.35891,-4.50361 -0.031,-1.87079 -0.266092,-3.73985 -0.7185,-5.56395 -0.413203,-1.67708 -1.018022,-3.31501 -1.8161,-4.86947 -0.659001,-1.28225 -1.444212,-2.51126 -2.365621,-3.6481 -0.8264,-1.01798 -1.756881,-1.96524 -2.78638,-2.81127 -0.794301,-0.65249 -1.64541,-1.24897 -2.55532,-1.75761 -1.448382,-0.80174 -3.02678,-1.37273 -4.60189,-1.92214 -2.2329,-0.76809 -4.528801,-1.37403 -6.85121,-1.8628 -2.753702,-0.57227 -5.547202,-0.98369 -8.3594,-1.21118 -2.126882,-0.1754 -4.26299,-0.253 -6.398291,-0.23913 z"
       style="fill:#a3d1e4;fill-opacity:1;fill-rule:evenodd;stroke:none;stroke-width:0.15603627px;stroke-linecap:butt;stroke-linejoin:miter;stroke-opacity:1" />
  </g>
</svg>
