<?xml version="1.0" encoding="UTF-8" standalone="no"?>
<!-- Created with Inkscape (http://www.inkscape.org/) -->
<svg xmlns:dc="http://purl.org/dc/elements/1.1/" xmlns:cc="http://creativecommons.org/ns#" xmlns:rdf="http://www.w3.org/1999/02/22-rdf-syntax-ns#" xmlns:svg="http://www.w3.org/2000/svg" xmlns="http://www.w3.org/2000/svg" xmlns:sodipodi="http://sodipodi.sourceforge.net/DTD/sodipodi-0.dtd" xmlns:inkscape="http://www.inkscape.org/namespaces/inkscape" width="21.159861mm" height="21.159861mm" viewBox="0 0 21.159861 21.159861" version="1.1" id="svg5101" inkscape:version="0.92.3 (unknown)" sodipodi:docname="tw.svg">
  <defs id="defs5095"/>
  <sodipodi:namedview id="base" pagecolor="#ffffff" bordercolor="#666666" borderopacity="1.0" inkscape:pageopacity="0.0" inkscape:pageshadow="2" inkscape:zoom="1.4519531" inkscape:cx="10.175083" inkscape:cy="-5.1891629" inkscape:document-units="mm" inkscape:current-layer="layer1" showgrid="false" fit-margin-top="0" fit-margin-left="0" fit-margin-right="0" fit-margin-bottom="0" inkscape:window-width="2560" inkscape:window-height="1392" inkscape:window-x="0" inkscape:window-y="48" inkscape:window-maximized="1"/>
  <metadata id="metadata5098">
    <rdf:RDF>
      <cc:Work rdf:about="">
        <dc:format>image/svg+xml</dc:format>
        <dc:type rdf:resource="http://purl.org/dc/dcmitype/StillImage"/>
        <dc:title/>
      </cc:Work>
    </rdf:RDF>
  </metadata>
  <g inkscape:label="Layer 1" inkscape:groupmode="layer" id="layer1" transform="translate(-33.730637,-126.30051)">
    <rect style="opacity:1;fill:#3897c0;fill-opacity:1;stroke:none;stroke-width:0.26458332;stroke-linecap:butt;stroke-linejoin:round;stroke-miterlimit:4;stroke-dasharray:0.26458331, 0.52916663;stroke-dashoffset:0;stroke-opacity:1" id="rect7438-0-2-6" width="21.159861" height="21.159861" x="33.730637" y="126.30051"/>
    <path style="fill:#ffffff;fill-opacity:1;stroke-width:0.02222102" d="m 42.33845,140.55631 c -0.763151,-0.0699 -1.51228,-0.30245 -2.099881,-0.65175 l -0.155549,-0.0925 0.199989,0.0142 c 0.22196,0.0157 0.641431,-0.017 0.898861,-0.07 0.428989,-0.0884 0.859749,-0.26751 1.229569,-0.51128 l 0.227,-0.14964 -0.22221,-0.0378 c -0.12222,-0.0208 -0.28962,-0.0627 -0.37202,-0.0931 -0.43785,-0.16161 -0.802269,-0.51202 -0.99128,-0.95315 l -0.0443,-0.10336 0.21501,0.0119 c 0.20829,0.0115 0.537051,-0.0243 0.537051,-0.0585 0,-0.009 -0.0494,-0.0287 -0.10972,-0.0441 -0.170871,-0.0438 -0.419171,-0.17146 -0.595701,-0.30629 -0.269059,-0.2055 -0.485739,-0.51917 -0.583299,-0.8444 -0.0516,-0.17202 -0.0917,-0.49617 -0.0614,-0.49617 0.0102,0 0.0575,0.0198 0.10498,0.0441 0.159469,0.0814 0.645369,0.18784 0.644999,0.14135 -8.9e-5,-0.0103 -0.0353,-0.0426 -0.0781,-0.0719 -0.0429,-0.0292 -0.137191,-0.1164 -0.20955,-0.19375 -0.470661,-0.50314 -0.593341,-1.24134 -0.310721,-1.86969 0.0344,-0.0764 0.0706,-0.13825 0.0805,-0.13748 0.01,7.7e-4 0.073,0.0665 0.14027,0.14598 0.142821,0.16893 0.467241,0.46559 0.70423,0.64396 0.469571,0.35341 1.011871,0.62493 1.606761,0.80449 0.29732,0.0897 0.83566,0.18185 1.06285,0.18185 0.0839,0 0.0952,-0.005 0.0818,-0.0389 -0.009,-0.0214 -0.021,-0.13929 -0.0276,-0.26201 -0.0436,-0.81322 0.47171,-1.51904 1.27611,-1.74782 0.231001,-0.0657 0.654061,-0.07 0.884381,-0.009 0.2894,0.0767 0.547339,0.2157 0.737409,0.3975 0.0884,0.0845 0.0981,0.0882 0.19597,0.0748 0.15962,-0.0219 0.557301,-0.16137 0.79546,-0.27902 0.118521,-0.0585 0.2155,-0.10277 0.2155,-0.0983 0,0.0391 -0.15259,0.32855 -0.231549,0.4392 -0.1057,0.14813 -0.31085,0.34796 -0.429531,0.41839 -0.0397,0.0236 -0.0722,0.0504 -0.0722,0.0597 0,0.0397 0.4954,-0.0724 0.781271,-0.17674 0.0958,-0.035 0.17423,-0.0599 0.17423,-0.0555 0,0.004 -0.0583,0.0815 -0.12958,0.17117 -0.15676,0.19726 -0.3892,0.43109 -0.57243,0.57584 l -0.135371,0.10694 -0.0142,0.35072 c -0.0306,0.75571 -0.18942,1.38045 -0.52402,2.06173 -0.26824,0.54614 -0.58081,0.97235 -1.02666,1.39992 -0.72393,0.69425 -1.60287,1.11461 -2.65201,1.26835 -0.22039,0.0323 -0.95132,0.0579 -1.14539,0.0401 z" id="path7225-2-7" inkscape:connector-curvature="0"/>
  </g>
</svg>